<svg id="logo" xmlns="http://www.w3.org/2000/svg" viewBox="0 0 1762.12 789"><defs><style>.cls-1{fill:#fff;}</style></defs><path class="cls-1" d="M191.81,626a173.37,173.37,0,0,0,17.72-6.68V501.88q-8.58,1.44-17.72,2.42Z"/><path class="cls-1" d="M156.35,508.72V632.23a99.46,99.46,0,0,0,17.72-1.7V505.71q-8.62.44-17.72.45Z"/><path class="cls-1" d="M227.26,610.67c5.88-3.23,11.79-6.66,17.73-10.55V493.57q-8.53,2.61-17.73,4.76Z"/><path class="cls-1" d="M337.26,155.56v239c0,76.56-6.63,107.15-21.37,137v-71.4c-5.53,3.61-11.42,7.22-17.72,10.74v86.66c50.18-48.46,93.18-110.67,121.43-171,34.27-73.26,47.34-128.41,49.11-196.9.53-20.2.31-34,.31-34Z"/><path class="cls-1" d="M262.71,587.77c5.93-4.4,11.84-9.16,17.73-14.21V480q-8.44,3.94-17.73,7.53Z"/><path class="cls-1" d="M874.39,295.71c0-48.59-27.22-77.66-73.18-77.66S727.79,247,727.79,295.71c0,49.06,27.46,78,73.42,78S874.39,344.77,874.39,295.71Zm-121.62.17c0-36.28,18-57.95,48.44-57.95s48.44,21.67,48.44,57.95c0,36.62-18,57.94-48.44,57.94S752.77,332.5,752.77,295.88Z"/><path class="cls-1" d="M999.4,302.71c0,32.05-15.16,50.78-41.13,50.78-23.21,0-36.53-14.82-36.53-40.21V220.89H897V314.2c0,37.45,19.3,59.51,52.62,59.51,30.79,0,49.29-20.22,49.29-54.34h.57v51.52h24.82v-150H999.4Z"/><path class="cls-1" d="M1192.17,288.74c0-31.71,15.74-50.44,42.62-50.44,24.13,0,37.92,14.82,37.92,39.87v92.72h24.93v-93.3c-.12-37.45-20-59.51-54.12-59.51-31.71,0-50.78,20.22-50.78,54.34h-.57V220.89h-24.92v150h24.92Z"/><path class="cls-1" d="M1535.24,368.17l-22,67.44h24.94l69.32-214.72h-24.93l-45.49,141.33h-.57l-43.3-141.33h-25.85s33.79,111.3,37.58,123.43C1509.72,359.43,1519.48,367.3,1535.24,368.17Z"/><path class="cls-1" d="M853.38,560.48c0,32.4-15.21,51.32-41.57,51.32-23.45,0-36.92-15-36.92-40.63V477.89H749.81V572.1c0,37.84,19.51,60.13,53.18,60.13,31.11,0,49.8-20.43,49.8-54.91h.59v52H878.5V477.89H853.38Z"/><path class="cls-1" d="M1244,474.93c-32,0-51.32,20.43-51.32,54.91h-.58V414.32H1167v215h25.13V546.33c0-32,15.91-51,43.08-51,24.38,0,38.33,15,38.33,40.29v93.62h25.12v-94.2C1298.55,497.22,1278.51,474.93,1244,474.93Z"/><path class="cls-1" d="M1081.26,277.83h-.61V220.89h-24.93v150h24.93V297.25c0-35.79,13.07-56.71,40.36-56.71,8.19,0,18,1.82,23.75,5.16V222.35c-4.67-3.06-12.72-4.55-19-4.55C1098.27,217.8,1081.26,239.93,1081.26,277.83Z"/><path class="cls-1" d="M935.74,535.19h-.61v-57.3H910V629.27h25.14V554.81c0-36.16,16.23-57.31,43.81-57.31,8.28,0,18.16,1.85,24,5.22V479.13c-4.72-3.1-12.85-4.61-19.19-4.61C956,474.52,935.74,496.89,935.74,535.19Z"/><path class="cls-1" d="M1513.42,535.19h-.61v-57.3h-25.13V629.27h25.13V554.81c0-36.16,16.23-57.31,43.81-57.31,8.28,0,18.17,1.85,24,5.22V479.13c-4.72-3.1-12.85-4.61-19.19-4.61C1533.65,474.52,1513.42,496.89,1513.42,535.19Z"/><path class="cls-1" d="M1056.93,477.25c15.24-8.25,23.71-21.2,23.71-38.66V414.37h-25v63.52h-33.12v19.36h33v86.68c0,30.18,16.15,48.3,46.73,48.3,11.12,0,24.54-2,33.34-7.59V604.3c-6.8,4-17.14,6.34-25.08,6.34-18.19,0-29.87-8.87-29.87-27.62V497.25h54.95V477.89h-78.66Z"/><polygon class="cls-1" points="605.41 629.27 631.46 629.27 631.46 530.36 720.13 530.36 720.13 509.23 631.46 509.23 631.46 434.5 735.32 434.5 735.32 413.25 605.41 413.25 605.41 629.27"/><path class="cls-1" d="M1462.26,553.75c0-49.81-26-78.83-69.9-78.83s-70.24,29-70.24,78.83c0,49.45,26.25,78.48,70.24,78.48,39.13,0,65-20.78,69.9-56.19h-24.73c-4,22.64-21.08,36.07-45.26,36.07-27.28,0-43.78-20.22-45-54.64h115Zm-70-58.76c25.15,0,41.45,17.33,44.62,47.2H1347.6C1350.77,512.21,1367.12,495,1392.27,495Z"/><path class="cls-1" d="M1459.8,296.07c0-49.29-25.74-78-69.16-78s-69.51,28.73-69.51,78c0,48.94,26,77.66,69.51,77.66,38.71,0,64.34-20.56,69.16-55.61h-24.47c-3.91,22.41-20.86,35.7-44.79,35.7-27,0-43.32-20-44.57-54.08H1459.8Zm-69.26-58.15c24.89,0,41,17.15,44.16,46.71h-88.36C1349.48,255,1365.65,237.92,1390.54,237.92Z"/><path class="cls-1" d="M682.1,351.94c18.23-19.3,23.34-34.66,23.34-72.51V155.88H680c0,54.69,0,113.44,0,168.13a20.34,20.34,0,0,1-1.88,9.39c-6.77,7-19.64,16.58-45,16.58-11.13,0-24.42-1.82-32.26-5.16v24.35c6.18,3,17,4.55,25.79,4.55C657.31,373.72,677.18,357.14,682.1,351.94Z"/></svg>